<svg width="13" height="13" viewBox="0 0 13 13" fill="none" xmlns="http://www.w3.org/2000/svg">
<path d="M6.5 0.25C3.05 0.25 0.25 3.05 0.25 6.5C0.25 9.95 3.05 12.75 6.5 12.75C9.95 12.75 12.75 9.95 12.75 6.5C12.75 3.05 9.95 0.25 6.5 0.25ZM6.5 11.5C3.74375 11.5 1.5 9.25625 1.5 6.5C1.5 3.74375 3.74375 1.5 6.5 1.5C9.25625 1.5 11.5 3.74375 11.5 6.5C11.5 9.25625 9.25625 11.5 6.5 11.5ZM9.36875 3.7375L5.25 7.85625L3.63125 6.24375L2.75 7.125L5.25 9.625L10.25 4.625L9.36875 3.7375Z" fill="#545454"/>
</svg>
