<svg width="23" height="22" viewBox="0 0 23 22" fill="none" xmlns="http://www.w3.org/2000/svg">
<circle cx="11.25" cy="11" r="10" stroke="#E0E8FC" stroke-width="2"/>
<path d="M1.29208 11.9164C1.46239 13.7671 2.14506 15.5336 3.26348 17.0179C4.3819 18.5022 5.89181 19.6454 7.6238 20.3194C9.35579 20.9933 11.2413 21.1712 13.0688 20.8332C14.8963 20.4952 16.5934 19.6546 17.9697 18.4057C19.3461 17.1569 20.3472 15.5492 20.8607 13.7631C21.3742 11.9769 21.3798 10.083 20.8769 8.29391C20.374 6.50477 19.3824 4.89118 18.0135 3.63419C16.6446 2.37721 14.9525 1.52657 13.127 1.17774" stroke="#FF7E17" stroke-width="2" stroke-linecap="round"/>
<path d="M14.8577 9.09248H13.7497C13.7071 8.85574 13.6278 8.64741 13.5118 8.46748C13.3958 8.28756 13.2537 8.13486 13.0856 8.00939C12.9176 7.88391 12.7293 7.78921 12.521 7.72529C12.3151 7.66137 12.0961 7.62941 11.8641 7.62941C11.445 7.62941 11.0698 7.73476 10.7383 7.94547C10.4093 8.15617 10.1489 8.46511 9.9571 8.87231C9.7677 9.27951 9.673 9.77667 9.673 10.3638C9.673 10.9556 9.7677 11.4552 9.9571 11.8624C10.1489 12.2696 10.4105 12.5773 10.7419 12.7857C11.0733 12.994 11.4462 13.0982 11.8605 13.0982C12.0901 13.0982 12.3079 13.0674 12.5139 13.0058C12.7222 12.9419 12.9105 12.8484 13.0785 12.7253C13.2466 12.6022 13.3887 12.4519 13.5047 12.2743C13.6231 12.0944 13.7047 11.8884 13.7497 11.6564L14.8577 11.66C14.7985 12.0174 14.6837 12.3465 14.5132 12.6472C14.3451 12.9455 14.1285 13.2035 13.8633 13.4213C13.6006 13.6368 13.2999 13.8037 12.9614 13.922C12.6228 14.0404 12.2535 14.0996 11.8534 14.0996C11.2237 14.0996 10.6626 13.9504 10.1702 13.6521C9.67774 13.3515 9.28948 12.9218 9.00539 12.3631C8.72367 11.8044 8.58281 11.1379 8.58281 10.3638C8.58281 9.58727 8.72485 8.92084 9.00894 8.3645C9.29303 7.80579 9.68129 7.37728 10.1737 7.07899C10.6661 6.77832 11.226 6.62799 11.8534 6.62799C12.2393 6.62799 12.5991 6.68363 12.9329 6.7949C13.2691 6.9038 13.571 7.06478 13.8385 7.27785C14.106 7.48855 14.3274 7.7466 14.5026 8.052C14.6777 8.35503 14.7961 8.70186 14.8577 9.09248Z" fill="#343434"/>
</svg>
