<svg width="23" height="22" viewBox="0 0 23 22" fill="none" xmlns="http://www.w3.org/2000/svg">
<circle cx="11.25" cy="11" r="10" stroke="#E0E8FC" stroke-width="2"/>
<path d="M1.29208 11.9164C1.46239 13.7671 2.14506 15.5336 3.26348 17.0179C4.3819 18.5022 5.89181 19.6454 7.6238 20.3194C9.35579 20.9933 11.2413 21.1712 13.0688 20.8332C14.8963 20.4952 16.5934 19.6546 17.9697 18.4057C19.3461 17.1569 20.3472 15.5492 20.8607 13.7631C21.3742 11.9769 21.3798 10.083 20.8769 8.29391C20.374 6.50477 19.3824 4.89118 18.0135 3.63419C16.6446 2.37721 14.9525 1.52657 13.127 1.17774" stroke="#FF7E17" stroke-width="2" stroke-linecap="round"/>
<path d="M9.22245 14.0002V6.72743H11.8858C12.4019 6.72743 12.8292 6.81265 13.1678 6.98311C13.5063 7.1512 13.7596 7.37965 13.9277 7.66848C14.0958 7.95494 14.1798 8.27809 14.1798 8.63794C14.1798 8.94097 14.1242 9.19665 14.0129 9.40498C13.9017 9.61095 13.7525 9.77667 13.5655 9.90214C13.3808 10.0252 13.1772 10.1152 12.9547 10.172V10.2431C13.1962 10.2549 13.4317 10.333 13.6614 10.4774C13.8934 10.6195 14.0851 10.8219 14.2367 11.0847C14.3882 11.3475 14.4639 11.6671 14.4639 12.0435C14.4639 12.4152 14.3763 12.749 14.2011 13.0449C14.0283 13.3385 13.7608 13.5717 13.3986 13.7445C13.0364 13.9149 12.5735 14.0002 12.0101 14.0002H9.22245ZM10.3198 13.0591H11.9036C12.4291 13.0591 12.8056 12.9573 13.0328 12.7537C13.2601 12.5501 13.3737 12.2956 13.3737 11.9902C13.3737 11.7606 13.3157 11.5499 13.1997 11.3581C13.0837 11.1663 12.918 11.0136 12.7026 10.9C12.4895 10.7864 12.2362 10.7296 11.9426 10.7296H10.3198V13.0591ZM10.3198 9.87373H11.7899C12.0361 9.87373 12.2575 9.82639 12.454 9.73169C12.6529 9.63699 12.8103 9.50442 12.9263 9.33396C13.0447 9.16114 13.1038 8.95754 13.1038 8.72317C13.1038 8.4225 12.9985 8.17037 12.7878 7.96677C12.5771 7.76318 12.2539 7.66138 11.8183 7.66138H10.3198V9.87373Z" fill="#343434"/>
</svg>
