<svg width="23" height="22" viewBox="0 0 23 22" fill="none" xmlns="http://www.w3.org/2000/svg">
<circle cx="11.25" cy="11" r="10" stroke="#E0E8FC" stroke-width="2"/>
<path d="M1.29208 11.9164C1.46239 13.7671 2.14506 15.5336 3.26348 17.0179C4.3819 18.5022 5.89181 19.6454 7.6238 20.3194C9.35579 20.9933 11.2413 21.1712 13.0688 20.8332C14.8963 20.4952 16.5934 19.6546 17.9697 18.4057C19.3461 17.1569 20.3472 15.5492 20.8607 13.7631C21.3742 11.9769 21.3798 10.083 20.8769 8.29391C20.374 6.50477 19.3824 4.89118 18.0135 3.63419C16.6446 2.37721 14.9525 1.52657 13.127 1.17774" stroke="#029262" stroke-width="2" stroke-linecap="round"/>
<path d="M9.60731 14.0002H8.44254L11.0597 6.72743H12.3275L14.9447 14.0002H13.7799L11.7238 8.04845H11.667L9.60731 14.0002ZM9.80262 11.1521H13.581V12.0754H9.80262V11.1521Z" fill="#343434"/>
</svg>
