<svg width="17" height="16" viewBox="0 0 17 16" fill="none" xmlns="http://www.w3.org/2000/svg">
<g clip-path="url(#clip0_2066_298)">
<path d="M8.25008 1.33333C10.8274 1.33333 12.9167 3.42267 12.9167 6C12.9167 6.07567 12.9149 6.15092 12.9114 6.22571C14.4677 6.77333 15.5834 8.25639 15.5834 10C15.5834 12.2091 13.7925 14 11.5834 14H4.91675C2.70761 14 0.916748 12.2091 0.916748 10C0.916748 8.25639 2.03239 6.77333 3.58877 6.22571C3.58521 6.15092 3.58341 6.07567 3.58341 6C3.58341 3.42267 5.67275 1.33333 8.25008 1.33333ZM8.25008 2.66666C6.40913 2.66666 4.91675 4.15905 4.91675 6C4.91675 6.05431 4.91804 6.10841 4.9206 6.16229L4.96783 7.15393L4.0313 7.48346C2.97301 7.85579 2.25008 8.85926 2.25008 10C2.25008 11.4727 3.44399 12.6667 4.91675 12.6667H11.5834C13.0561 12.6667 14.2501 11.4727 14.2501 10C14.2501 8.52666 13.0567 7.33333 11.5834 7.33333C10.4054 7.33333 9.40588 8.09713 9.05288 9.15646L7.78768 8.73473C8.31708 7.14566 9.81675 6 11.5834 6C11.5834 4.15905 10.091 2.66666 8.25008 2.66666Z" fill="#A0A0A0"/>
</g>
<defs>
<clipPath id="clip0_2066_298">
<rect width="16" height="16" fill="white" transform="translate(0.25)"/>
</clipPath>
</defs>
</svg>
