<svg width="16" height="17" viewBox="0 0 16 17" fill="none" xmlns="http://www.w3.org/2000/svg">
<path d="M7.99992 15.1667C4.31802 15.1667 1.33325 12.1819 1.33325 8.49999C1.33325 4.81809 4.31802 1.83333 7.99992 1.83333C11.6818 1.83333 14.6666 4.81809 14.6666 8.49999C14.6666 12.1819 11.6818 15.1667 7.99992 15.1667ZM7.99992 13.8333C10.9455 13.8333 13.3333 11.4455 13.3333 8.49999C13.3333 5.55447 10.9455 3.16666 7.99992 3.16666C5.0544 3.16666 2.66659 5.55447 2.66659 8.49999C2.66659 11.4455 5.0544 13.8333 7.99992 13.8333ZM7.33325 10.5H8.66658V11.8333H7.33325V10.5ZM7.33325 5.16666H8.66658V9.16666H7.33325V5.16666Z" fill="#FF7E17"/>
</svg>
